<?xml version="1.0" encoding="UTF-8"?>
<svg xmlns="http://www.w3.org/2000/svg" xmlns:xlink="http://www.w3.org/1999/xlink" width="625px" height="625px" viewBox="0 0 625 625" version="1.1">
<g id="surface1">
<path style=" stroke:none;fill-rule:nonzero;fill:rgb(0%,0%,0%);fill-opacity:1;" d="M 299.695312 130.542969 C 298.195312 131.34375 294.996094 132.042969 292.695312 132.042969 C 290.394531 132.042969 287.59375 132.742188 286.492188 133.542969 C 285.492188 134.34375 283.992188 135.042969 283.191406 135.042969 C 282.390625 135.042969 280.289062 136.144531 278.488281 137.542969 C 276.6875 138.945312 274.6875 140.042969 274.085938 140.042969 C 273.488281 140.042969 270.386719 142.546875 267.285156 145.648438 C 264.183594 148.746094 259.683594 152.847656 257.382812 154.75 C 252.582031 158.75 247.078125 168.953125 247.078125 174.054688 C 247.078125 175.957031 245.980469 180.457031 244.679688 184.058594 C 240.175781 196.460938 239.777344 198.664062 239.175781 214.570312 C 238.675781 228.171875 238.375 230.472656 237.074219 230.171875 C 231.675781 228.671875 229.375 228.972656 226.171875 231.574219 C 221.871094 235.273438 220.371094 238.476562 219.269531 246.480469 C 217.871094 256.980469 219.96875 268.085938 225.273438 278.789062 C 228.671875 285.589844 230.671875 288.191406 233.875 290.394531 C 237.675781 292.894531 237.976562 293.59375 238.578125 298.894531 C 241.175781 322.101562 247.378906 335.105469 263.882812 352.210938 C 266.886719 355.3125 268.886719 358.113281 268.386719 358.414062 C 267.6875 358.914062 247.480469 359.414062 241.277344 359.214844 C 239.976562 359.113281 226.074219 338.507812 226.074219 336.609375 C 226.074219 334.105469 223.472656 330.207031 220.371094 328.105469 C 218.371094 326.804688 216.96875 324.703125 216.570312 322.804688 C 216.167969 321.003906 215.070312 318.703125 214.070312 317.601562 C 213.066406 316.5 210.265625 312.398438 207.667969 308.398438 C 205.164062 304.398438 201.464844 299.296875 199.363281 296.996094 C 197.261719 294.695312 195.164062 291.394531 194.5625 289.691406 C 193.863281 287.691406 192.363281 285.992188 190.0625 284.890625 C 188.160156 283.890625 175.855469 272.886719 162.753906 260.382812 L 139.042969 237.574219 L 139.542969 230.074219 C 139.945312 224.671875 139.542969 220.46875 138.246094 215.070312 C 136.542969 208.167969 136.542969 206.867188 137.84375 200.265625 C 138.945312 194.5625 139.042969 192.761719 138.042969 191.5625 C 136.445312 189.660156 133.042969 189.660156 130.242188 191.660156 C 127.441406 193.5625 124.039062 200.164062 124.039062 203.464844 C 124.039062 204.867188 123.640625 207.066406 123.039062 208.566406 C 122.238281 210.765625 121.738281 210.96875 120.039062 210.066406 C 117.238281 208.566406 109.835938 198.363281 104.832031 189.261719 C 102.632812 185.257812 99.730469 181.257812 98.53125 180.457031 C 96.429688 179.058594 95.832031 179.058594 93.128906 180.558594 C 88.828125 182.660156 89.027344 186.757812 93.628906 195.5625 C 95.628906 199.464844 97.929688 203.867188 98.730469 205.367188 C 99.53125 206.964844 100.03125 208.464844 99.730469 208.765625 C 99.433594 209.066406 94.929688 206.066406 89.730469 202.164062 C 79.023438 194.164062 75.324219 193.160156 72.421875 197.5625 C 69.921875 201.363281 71.523438 203.765625 81.925781 212.167969 C 86.929688 216.167969 90.828125 219.570312 90.527344 219.871094 C 90.328125 220.070312 85.527344 219.070312 80.027344 217.570312 C 70.324219 214.867188 69.921875 214.867188 68.023438 216.570312 C 66.820312 217.667969 66.019531 219.671875 66.019531 221.570312 C 66.019531 224.472656 66.519531 225.070312 70.824219 226.871094 C 73.421875 227.972656 77.925781 229.574219 80.726562 230.574219 C 88.226562 232.972656 88.226562 234.074219 80.625 234.074219 C 73.324219 234.074219 69.320312 235.476562 68.421875 238.277344 C 67.722656 240.675781 70.523438 245.078125 72.824219 245.179688 C 73.722656 245.179688 79.023438 245.578125 84.527344 245.980469 C 94.230469 246.679688 94.730469 246.878906 101.230469 251.28125 C 104.933594 253.882812 109.636719 256.183594 111.835938 256.582031 C 114.035156 256.882812 116.539062 257.78125 117.4375 258.382812 C 118.238281 259.082031 121.738281 264.984375 125.039062 271.585938 C 128.441406 278.1875 133.441406 287.292969 136.144531 291.691406 C 138.84375 296.195312 141.046875 300.394531 141.046875 300.996094 C 141.046875 301.597656 142.546875 305.296875 144.445312 309.300781 C 146.347656 313.300781 148.246094 317.902344 148.648438 319.503906 C 149.347656 321.601562 150.847656 323.101562 154.25 324.804688 C 156.851562 326.105469 159.550781 328.203125 160.152344 329.40625 C 160.75 330.605469 162.851562 333.507812 164.753906 335.808594 C 168.652344 340.710938 173.957031 349.410156 177.457031 356.613281 C 179.558594 361.117188 184.558594 367.816406 196.261719 382.121094 C 209.667969 398.628906 209.367188 398.027344 208.867188 403.230469 C 208.265625 408.929688 204.367188 417.234375 199.5625 422.835938 L 196.0625 426.9375 L 198.0625 430.835938 C 199.164062 432.9375 201.863281 439.339844 204.164062 445.140625 C 206.367188 450.945312 210.066406 459.648438 212.269531 464.648438 C 216.167969 473.652344 216.269531 473.652344 225.871094 480.652344 C 231.074219 484.453125 240.375 492.558594 246.378906 498.460938 C 253.582031 505.660156 257.78125 509.0625 258.78125 508.761719 C 263.085938 507.0625 275.386719 505.160156 281.691406 505.160156 C 285.691406 505.160156 294.792969 506.0625 302.097656 507.164062 C 309.398438 508.261719 319.902344 509.164062 325.503906 509.164062 C 336.40625 509.164062 354.8125 507.0625 364.617188 504.761719 C 367.917969 503.960938 372.621094 502.761719 375.121094 502.160156 C 381.523438 500.660156 392.527344 496.359375 400.328125 492.558594 C 406.03125 489.65625 407.429688 488.355469 410.429688 483.453125 C 412.332031 480.253906 415.132812 474.953125 416.632812 471.652344 C 418.035156 468.351562 421.234375 463.546875 423.835938 461.046875 C 428.636719 456.046875 428.738281 455.445312 425.636719 448.644531 C 423.035156 443.042969 417.832031 427.9375 417.832031 426.335938 C 417.933594 425.335938 415.234375 418.933594 411.933594 411.933594 L 405.828125 399.328125 L 407.929688 396.425781 C 409.03125 394.925781 416.132812 387.625 423.636719 380.222656 C 432.039062 372.019531 438.039062 365.21875 439.242188 362.714844 C 442.742188 355.214844 458.945312 336.109375 461.746094 336.109375 C 465.648438 336.109375 469.550781 332.207031 477.152344 320.902344 C 481.652344 314.300781 487.457031 306.296875 490.15625 303.195312 C 492.859375 300.097656 498.859375 292.59375 503.460938 286.589844 L 511.765625 275.589844 L 517.765625 275.089844 C 521.46875 274.789062 526.167969 273.386719 530.46875 271.386719 C 537.070312 268.285156 537.570312 268.1875 543.972656 269.085938 C 558.277344 271.1875 564.179688 269.886719 564.179688 264.785156 C 564.179688 262.585938 559.480469 259.082031 556.277344 258.984375 C 554.878906 258.984375 551.875 258.382812 549.675781 257.683594 L 545.675781 256.382812 L 551.175781 255.28125 C 554.175781 254.679688 558.480469 253.882812 560.679688 253.480469 C 569.882812 251.980469 572.484375 248.28125 567.683594 243.476562 C 565.679688 241.476562 564.480469 241.175781 561.480469 241.476562 C 559.378906 241.777344 554.777344 242.277344 551.175781 242.578125 C 545.472656 243.179688 544.875 242.976562 546.175781 241.777344 C 546.976562 240.976562 550.875 238.578125 554.675781 236.574219 C 565.179688 230.875 567.179688 229.273438 567.179688 226.472656 C 567.179688 218.371094 562.480469 218.167969 548.375 225.570312 C 542.574219 228.671875 537.671875 230.875 537.371094 230.574219 C 537.070312 230.273438 538.972656 227.472656 541.472656 224.371094 C 551.078125 212.566406 553.476562 206.265625 549.574219 203.363281 C 545.175781 200.164062 543.472656 201.363281 531.96875 215.070312 C 526.269531 221.972656 518.964844 228.074219 516.566406 228.074219 C 515.464844 228.074219 515.164062 226.574219 515.164062 222.070312 C 515.164062 213.066406 511.164062 206.066406 506.160156 206.066406 C 501.859375 206.066406 501.058594 207.964844 501.761719 215.769531 C 502.359375 221.871094 502.160156 223.269531 499.761719 228.171875 C 496.960938 234.175781 495.160156 241.976562 495.160156 248.179688 C 495.160156 251.78125 494.859375 252.082031 489.457031 255.082031 C 486.253906 256.78125 476.550781 263.285156 467.949219 269.585938 C 459.246094 275.886719 451.746094 281.089844 451.34375 281.089844 C 450.84375 281.089844 447.941406 282.890625 444.742188 285.089844 C 441.640625 287.292969 438.242188 289.09375 437.238281 289.09375 C 434.539062 289.09375 430.4375 292.695312 429.738281 295.59375 C 429.335938 296.996094 428.4375 298.09375 427.535156 298.09375 C 424.335938 298.09375 403.429688 321.503906 402.527344 326.105469 C 402.128906 327.804688 400.726562 329.40625 398.628906 330.503906 C 396.726562 331.507812 394.527344 333.90625 393.625 335.707031 C 391.625 339.910156 383.824219 350.3125 375.71875 359.515625 L 369.71875 366.316406 L 362.117188 365.71875 C 354.914062 365.015625 345.609375 362.714844 343.710938 361.015625 C 343.308594 360.617188 343.910156 359.714844 345.210938 359.113281 C 350.113281 356.515625 361.414062 346.609375 365.515625 341.210938 C 370.917969 334.207031 373.417969 329.207031 377.519531 317.703125 C 380.722656 308.796875 380.820312 308.597656 384.222656 308.296875 C 386.921875 308 389.023438 306.597656 394.527344 300.894531 C 398.527344 296.796875 402.429688 291.492188 403.828125 288.492188 C 407.332031 280.789062 410.132812 269.886719 410.132812 263.882812 C 410.132812 255.183594 404.53125 248.378906 398.027344 249.28125 C 394.425781 249.878906 393.226562 248.078125 394.925781 244.777344 C 396.027344 242.578125 397.527344 236.175781 399.128906 226.171875 C 399.628906 223.269531 399.929688 211.367188 399.929688 199.664062 C 399.828125 177.355469 398.828125 170.253906 395.125 166.953125 C 394.125 166.054688 392.625 163.753906 391.824219 161.75 C 390.925781 159.75 388.625 157.050781 386.421875 155.648438 C 384.324219 154.25 381.523438 152.25 380.121094 151.148438 C 378.722656 150.046875 377.121094 149.046875 376.519531 149.046875 C 375.820312 149.046875 375.121094 148.347656 374.820312 147.546875 C 374.21875 146.246094 369.019531 142.246094 363.214844 139.042969 C 361.816406 138.246094 359.515625 136.742188 358.113281 135.742188 C 356.8125 134.84375 354.714844 134.042969 353.613281 134.042969 C 352.414062 134.042969 351.011719 133.542969 350.511719 133.042969 C 349.910156 132.441406 346.511719 131.742188 343.007812 131.441406 C 339.507812 131.242188 335.007812 130.84375 333.105469 130.542969 C 331.207031 130.242188 323.503906 129.839844 316.101562 129.542969 C 305.097656 129.042969 302.097656 129.242188 299.695312 130.542969 Z M 318.703125 135.242188 C 319.203125 135.542969 323.902344 136.144531 329.105469 136.542969 C 334.308594 136.945312 339.207031 137.742188 339.910156 138.34375 C 340.808594 139.042969 341.507812 139.042969 342.308594 138.246094 C 343.910156 136.644531 346.609375 136.742188 348.113281 138.542969 C 348.8125 139.34375 350.3125 140.042969 351.613281 140.042969 C 352.8125 140.042969 354.613281 140.945312 355.613281 142.046875 C 356.613281 143.144531 358.214844 144.046875 359.214844 144.046875 C 360.214844 144.046875 361.515625 144.945312 362.117188 146.046875 C 362.714844 147.148438 363.917969 148.046875 364.917969 148.046875 C 366.917969 148.148438 369.21875 149.847656 370.71875 152.546875 C 371.320312 153.550781 373.121094 154.847656 374.820312 155.25 C 376.519531 155.648438 378.621094 157.148438 379.519531 158.550781 C 380.421875 159.953125 382.023438 161.050781 383.121094 161.050781 C 385.421875 161.050781 387.425781 164.351562 386.824219 167.355469 C 386.523438 169.453125 386.421875 169.453125 385.324219 166.953125 C 384.722656 165.453125 382.921875 163.851562 381.222656 163.253906 C 379.421875 162.550781 377.722656 161.050781 377.121094 159.652344 C 376.320312 157.351562 375.621094 157.050781 371.617188 157.050781 C 367.417969 157.050781 367.015625 156.851562 365.71875 153.550781 C 364.316406 150.347656 363.816406 150.046875 360.117188 150.046875 C 357.414062 150.046875 355.8125 149.546875 355.515625 148.546875 C 355.113281 147.746094 353.914062 147.046875 352.710938 147.046875 C 351.414062 147.046875 349.410156 145.945312 348.210938 144.644531 C 345.011719 141.246094 341.710938 140.644531 337.507812 142.644531 C 334.207031 144.246094 333.808594 144.246094 330.707031 142.546875 C 328.105469 141.144531 327.003906 141.046875 325.304688 141.945312 C 323.703125 142.746094 322.503906 142.847656 321.203125 142.046875 C 320.101562 141.546875 317.902344 141.046875 316.300781 141.046875 C 314.699219 141.046875 312.800781 140.34375 312 139.445312 C 311 138.246094 309.699219 138.042969 306.699219 138.542969 C 304.398438 138.945312 300.296875 139.144531 297.394531 139.144531 C 294.09375 139.144531 291.894531 139.644531 291.09375 140.546875 C 290.394531 141.34375 288.59375 142.046875 287.09375 142.046875 C 285.390625 142.046875 283.390625 143.046875 281.992188 144.546875 C 280.691406 145.847656 278.789062 147.046875 277.890625 147.046875 C 276.886719 147.046875 275.386719 148.148438 274.488281 149.546875 C 272.585938 152.449219 270.785156 152.949219 271.785156 150.25 C 272.585938 148.449219 276.089844 145.144531 277.390625 145.046875 C 277.890625 145.046875 279.390625 144.144531 280.789062 143.046875 C 282.191406 141.945312 283.992188 141.046875 284.792969 141.046875 C 285.589844 141.046875 287.59375 140.144531 289.191406 138.945312 C 291.394531 137.445312 293.09375 137.042969 295.394531 137.445312 C 297.496094 137.742188 299.796875 137.34375 302.097656 136.042969 C 304.699219 134.644531 307.199219 134.242188 311.699219 134.441406 C 315 134.542969 318.101562 134.941406 318.703125 135.242188 Z M 313.101562 145.746094 C 313.300781 145.945312 311.601562 145.945312 309.300781 145.847656 C 307 145.648438 305.097656 145.144531 305.097656 144.746094 C 305.097656 144.046875 312.101562 144.847656 313.101562 145.746094 Z M 347.910156 149.449219 C 348.210938 149.847656 346.011719 150.046875 342.808594 149.847656 C 339.707031 149.648438 337.109375 149.246094 337.109375 148.847656 C 337.109375 147.949219 346.910156 148.546875 347.910156 149.449219 Z M 287.59375 150.046875 C 284.792969 151.25 283.890625 151.25 284.589844 150.046875 C 284.890625 149.449219 286.191406 149.046875 287.390625 149.148438 C 289.492188 149.148438 289.492188 149.246094 287.59375 150.046875 Z M 269.585938 153.050781 C 269.285156 153.550781 268.386719 154.050781 267.785156 154.050781 C 267.085938 154.050781 267.183594 153.648438 268.085938 153.050781 C 269.988281 151.847656 270.386719 151.847656 269.585938 153.050781 Z M 359.714844 155.550781 C 362.214844 157.449219 361.117188 157.449219 357.515625 155.550781 C 355.914062 154.75 355.3125 154.050781 356.214844 154.050781 C 357.015625 154.050781 358.613281 154.75 359.714844 155.550781 Z M 261.484375 160.851562 C 260.382812 161.75 258.984375 163.753906 258.28125 165.253906 C 257.683594 166.851562 256.683594 168.054688 256.183594 168.054688 C 254.980469 168.054688 257.984375 161.953125 259.984375 160.351562 C 262.484375 158.449219 263.882812 158.851562 261.484375 160.851562 Z M 391.925781 174.65625 C 391.625 176.054688 391.226562 175.65625 390.324219 173.054688 C 389.125 169.855469 389.222656 169.652344 390.726562 171.15625 C 391.625 172.054688 392.125 173.65625 391.925781 174.65625 Z M 307.597656 178.558594 C 354.613281 183.058594 383.921875 189.359375 385.523438 195.460938 C 385.824219 196.5625 386.125 203.066406 386.125 209.765625 C 386.125 216.46875 386.523438 222.171875 387.023438 222.472656 C 387.824219 222.972656 389.125 210.765625 389.125 202.265625 C 389.125 199.265625 389.523438 198.0625 390.625 198.0625 C 393.324219 198.0625 394.125 201.863281 394.125 214.070312 C 394.125 225.570312 393.226562 231.574219 389.625 244.578125 C 387.625 251.582031 386.125 259.683594 385.125 268.785156 C 383.023438 286.390625 379.222656 299.796875 373.621094 309.097656 C 369.617188 315.699219 365.617188 319.703125 364.617188 318.101562 C 364.214844 317.5 362.917969 318.203125 361.117188 320.101562 C 357.414062 324.105469 356.3125 323.902344 356.3125 319.203125 C 356.113281 308.5 347.109375 302.296875 333.308594 303.398438 C 329.605469 303.695312 323.605469 304.398438 319.800781 305.097656 C 311.300781 306.597656 310.300781 306.199219 314.601562 303.195312 C 317.5 301.195312 318.5 300.996094 321.101562 301.996094 C 323.703125 302.898438 324.503906 302.695312 326.105469 301.097656 C 327.203125 299.996094 328.105469 297.894531 328.003906 296.292969 L 328.003906 293.59375 L 326.40625 296.796875 C 324.703125 300.296875 323.203125 300.796875 320.003906 299.097656 C 318.5 298.195312 317.101562 298.59375 313.699219 300.597656 L 309.300781 303.195312 L 305.496094 299.894531 C 302.796875 297.496094 300.796875 296.59375 298.195312 296.59375 C 294.894531 296.59375 294.59375 296.394531 294.292969 293.292969 C 293.894531 289.09375 292.09375 289.09375 292.09375 293.394531 C 292.09375 297.496094 293.59375 299.097656 297.59375 299.097656 C 300.796875 299.097656 306.199219 303.398438 304.796875 304.796875 C 304.398438 305.097656 299.695312 303.597656 294.394531 301.296875 C 283.691406 296.695312 277.589844 295.496094 270.785156 296.496094 C 265.484375 297.296875 259.984375 302.097656 258.484375 307.097656 C 257.183594 311.800781 255.582031 311.800781 253.082031 307.199219 C 251.679688 304.898438 250.28125 303.496094 249.480469 303.796875 C 248.78125 303.996094 247.578125 302.996094 246.777344 301.394531 C 243.476562 294.792969 242.578125 288.59375 242.675781 272.585938 C 242.675781 247.578125 244.679688 202.765625 245.980469 198.761719 C 246.578125 196.664062 247.578125 193.363281 248.179688 191.261719 C 250.078125 185.058594 252.179688 181.058594 253.78125 181.058594 C 254.882812 181.058594 255.082031 181.957031 254.480469 185.757812 C 254.082031 188.460938 253.480469 191.5625 252.980469 192.761719 C 251.679688 196.164062 250.78125 207.066406 251.679688 207.066406 C 252.179688 207.066406 253.382812 203.566406 254.480469 199.265625 C 256.683594 189.859375 258.984375 182.058594 259.984375 180.058594 C 260.484375 179.257812 262.585938 178.257812 264.683594 177.957031 C 271.988281 176.855469 292.59375 177.058594 307.597656 178.558594 Z M 101.53125 191.5625 C 106.933594 201.0625 109.535156 204.765625 114.738281 210.167969 L 119.238281 214.769531 L 118.039062 220.769531 C 116.335938 229.375 119.039062 238.476562 122.339844 235.175781 C 123.140625 234.375 123.140625 233.773438 122.238281 232.875 C 121.539062 232.175781 121.039062 229.171875 121.039062 226.171875 C 121.039062 221.972656 121.738281 219.570312 124.039062 215.367188 C 125.742188 212.46875 127.039062 208.765625 127.039062 207.167969 C 127.039062 202.363281 131.542969 194.0625 134.242188 194.0625 C 135.441406 194.0625 135.242188 197.464844 133.941406 198.761719 C 132.34375 200.363281 132.242188 212.367188 133.84375 214.367188 C 134.84375 215.46875 135.042969 218.96875 134.742188 227.773438 C 134.542969 234.273438 134.144531 240.476562 133.941406 241.476562 C 133.644531 243.078125 134.242188 243.578125 136.945312 244.179688 C 139.542969 244.679688 143.945312 248.480469 155.851562 260.382812 L 171.355469 275.886719 L 166.953125 278.6875 C 159.953125 283.289062 148.648438 291.691406 147.148438 293.492188 C 145.648438 295.292969 143.046875 295.695312 143.046875 294.09375 C 143.046875 293.492188 141.945312 291.394531 140.746094 289.292969 C 137.34375 283.890625 132.242188 274.6875 127.941406 266.085938 C 124.539062 259.484375 124.339844 258.484375 125.742188 257.382812 C 128.640625 255.082031 126.640625 253.882812 119.539062 253.582031 C 112.234375 253.382812 107.132812 251.28125 99.132812 245.179688 C 96.03125 242.878906 94.628906 242.578125 85.128906 242.277344 C 71.921875 241.777344 68.921875 240.175781 78.125 238.375 C 81.625 237.777344 87.328125 237.175781 90.828125 237.175781 C 97.132812 237.074219 97.132812 237.074219 96.832031 234.375 C 96.53125 231.972656 95.730469 231.375 90.527344 229.773438 C 87.226562 228.671875 83.828125 227.574219 83.027344 227.273438 C 82.226562 226.972656 78.824219 225.773438 75.625 224.570312 C 63.421875 220.171875 69.523438 218.671875 83.527344 222.570312 C 94.429688 225.570312 97.132812 226.074219 98.132812 225.570312 C 99.730469 224.472656 99.132812 220.171875 97.132812 219.070312 C 96.03125 218.570312 94.628906 217.46875 93.828125 216.769531 C 93.128906 216.070312 88.929688 212.667969 84.527344 209.167969 C 75.722656 202.164062 74.824219 201.0625 75.925781 199.164062 C 76.925781 197.664062 79.824219 199.464844 92.429688 209.066406 C 100.433594 215.070312 105.433594 216.769531 106.632812 213.667969 C 106.933594 212.96875 105.734375 209.667969 103.933594 206.464844 C 96.332031 192.660156 94.03125 187.761719 94.03125 185.960938 C 94.03125 181.957031 97.53125 184.558594 101.53125 191.5625 Z M 547.675781 207.066406 C 548.375 208.167969 543.574219 215.667969 536.171875 224.871094 C 526.96875 236.476562 530.667969 239.476562 544.875 231.875 C 559.679688 223.972656 561.578125 223.171875 562.980469 224.273438 C 564.78125 225.871094 562.378906 228.171875 554.878906 232.074219 C 531.171875 244.277344 529.371094 247.679688 546.773438 246.679688 C 552.277344 246.378906 558.578125 245.878906 560.980469 245.480469 C 564.480469 244.976562 565.179688 245.179688 565.179688 246.480469 C 565.179688 248.78125 562.078125 249.878906 552.675781 251.082031 C 539.972656 252.582031 537.273438 253.179688 536.070312 254.679688 C 534.472656 256.582031 536.570312 259.082031 539.773438 259.082031 C 540.972656 259.082031 542.273438 259.484375 542.574219 259.984375 C 542.875 260.484375 545.675781 261.183594 548.777344 261.582031 C 555.578125 262.382812 559.179688 263.882812 559.179688 265.886719 C 559.179688 266.984375 558.378906 267.183594 555.976562 266.683594 C 554.175781 266.285156 549.074219 265.585938 544.675781 265.085938 C 537.273438 264.285156 536.273438 264.382812 531.171875 266.785156 C 519.167969 272.289062 516.664062 272.6875 506.460938 270.488281 C 503.859375 269.988281 503.160156 270.1875 503.160156 271.386719 C 503.160156 272.289062 503.660156 273.289062 504.160156 273.585938 C 504.761719 273.886719 505.160156 274.488281 505.160156 274.886719 C 505.160156 275.988281 496.359375 287.890625 489.355469 296.292969 C 485.957031 300.296875 482.355469 304.699219 481.152344 306.097656 L 479.054688 308.597656 L 476.851562 305.597656 C 475.652344 303.898438 470.75 298.59375 465.949219 293.792969 C 461.046875 288.890625 457.144531 284.589844 457.144531 284.289062 C 457.246094 283.492188 469.75 274.386719 484.453125 264.285156 C 491.058594 259.78125 494.257812 258.183594 495.757812 258.484375 C 498.558594 259.28125 499.160156 257.683594 499.160156 248.878906 C 499.160156 241.078125 500.460938 235.777344 503.859375 229.171875 C 505.660156 225.773438 506.160156 223.171875 506.160156 217.371094 C 506.160156 211.867188 506.460938 209.96875 507.363281 210.265625 C 508.960938 210.867188 510.964844 217.769531 511.5625 224.972656 C 511.765625 228.074219 512.664062 232.375 513.5625 234.476562 C 515.664062 239.578125 515.566406 243.378906 513.0625 248.179688 C 510.964844 252.378906 511.0625 253.679688 513.464844 252.78125 C 516.367188 251.679688 518.464844 245.078125 517.867188 238.875 L 517.367188 232.972656 L 521.46875 230.273438 C 526.667969 226.972656 532.070312 221.570312 539.074219 212.769531 C 544.273438 206.367188 546.375 204.964844 547.675781 207.066406 Z M 236.574219 236.574219 C 238.277344 238.175781 239.078125 240.078125 239.078125 242.476562 C 239.078125 247.277344 237.777344 247.578125 235.574219 243.476562 C 234.574219 241.476562 232.875 239.476562 231.875 238.976562 C 229.574219 237.777344 229.574219 238.578125 232.074219 242.578125 C 233.976562 245.777344 233.976562 245.777344 232.074219 249.578125 C 230.972656 251.78125 230.074219 255.082031 230.171875 257.082031 C 230.171875 260.582031 230.171875 260.582031 232.273438 255.28125 C 233.476562 252.378906 234.875 250.179688 235.476562 250.378906 C 237.175781 250.980469 237.476562 275.1875 235.875 276.289062 C 234.875 277.089844 234.875 277.390625 235.875 277.789062 C 236.574219 277.988281 237.074219 279.988281 237.074219 282.289062 C 237.074219 287.890625 235.375 286.890625 230.375 277.988281 C 225.472656 269.484375 223.871094 262.882812 223.871094 251.980469 C 223.972656 237.277344 230.074219 229.972656 236.574219 236.574219 Z M 403.027344 256.683594 C 406.929688 261.683594 404.730469 276.886719 398.425781 288.09375 C 394.125 295.59375 383.121094 305.996094 383.121094 302.398438 C 383.121094 300.496094 385.625 295.09375 386.625 295.09375 C 387.125 295.09375 387.722656 292.492188 387.824219 289.09375 C 387.925781 285.792969 388.523438 282.289062 389.125 281.191406 C 389.625 280.089844 390.125 277.488281 390.125 275.386719 C 390.125 271.386719 392.324219 266.984375 393.726562 268.386719 C 394.125 268.785156 394.425781 271.785156 394.425781 275.089844 C 394.425781 278.390625 394.828125 281.089844 395.226562 281.089844 C 396.625 281.089844 397.425781 272.1875 396.328125 268.1875 C 395.425781 264.484375 395.527344 264.085938 398.226562 262.183594 C 401.128906 260.082031 402.027344 258.082031 400.128906 258.082031 C 399.628906 258.082031 397.628906 259.382812 395.828125 261.082031 C 391.523438 264.785156 391.125 264.785156 391.125 261.183594 C 391.125 259.183594 392.027344 257.582031 393.726562 256.183594 C 397.328125 253.382812 400.527344 253.582031 403.027344 256.683594 Z M 289.992188 307.898438 C 302.996094 312.699219 311.5 313.699219 327.105469 312.101562 C 341.609375 310.597656 344.410156 311.199219 346.109375 315.699219 C 346.910156 317.601562 346.710938 320.003906 345.609375 324.503906 C 342.308594 337.40625 330.804688 353.011719 320.703125 358.316406 C 317 360.214844 316.601562 360.214844 313.398438 358.714844 C 311 357.613281 309.898438 356.214844 309.5 354.113281 C 308.898438 351.210938 308.699219 351.113281 303.195312 351.113281 C 298.59375 351.113281 297.296875 351.511719 296.292969 353.113281 C 295.59375 354.3125 293.894531 355.613281 292.492188 356.113281 C 287.292969 358.113281 280.390625 351.914062 274.6875 339.910156 C 267.386719 324.402344 265.886719 308.796875 271.488281 304.796875 C 273.488281 303.398438 281.390625 304.699219 289.992188 307.898438 Z M 281.890625 366.617188 C 289.191406 370.617188 292.792969 371.417969 305.398438 371.917969 C 316.703125 372.320312 318.902344 372.117188 324.902344 370.117188 C 328.605469 368.917969 332.007812 367.519531 332.507812 367.015625 C 335.105469 364.617188 342.109375 366.917969 342.109375 370.019531 C 342.109375 372.117188 335.808594 378.222656 331.105469 380.621094 C 314.300781 389.324219 287.191406 386.824219 275.488281 375.71875 C 270.1875 370.617188 269.988281 368.519531 274.386719 366.617188 C 278.488281 364.816406 278.6875 364.816406 281.890625 366.617188 Z M 281.890625 366.617188 "/>
<path style=" stroke:none;fill-rule:nonzero;fill:rgb(0%,0%,0%);fill-opacity:1;" d="M 275.386719 216.96875 C 269.285156 218.570312 258.382812 226.074219 262.285156 226.074219 C 263.085938 226.074219 264.085938 225.671875 264.683594 225.070312 C 265.183594 224.570312 268.386719 223.472656 271.785156 222.671875 C 279.1875 220.972656 287.992188 222.269531 297.496094 226.472656 C 301.097656 228.074219 303.796875 228.773438 304.398438 228.171875 C 308 224.570312 296.09375 217.46875 285.089844 216.667969 C 281.488281 216.371094 277.1875 216.570312 275.386719 216.96875 Z M 275.386719 216.96875 "/>
<path style=" stroke:none;fill-rule:nonzero;fill:rgb(0%,0%,0%);fill-opacity:1;" d="M 337.609375 225.171875 C 333.40625 226.171875 329.40625 229.773438 330.90625 231.273438 C 331.40625 231.773438 335.605469 231.675781 340.910156 230.972656 C 352.8125 229.472656 360.015625 230.671875 367.617188 235.476562 C 370.617188 237.476562 373.121094 238.578125 373.121094 238.078125 C 373.121094 236.277344 364.714844 228.574219 360.617188 226.671875 C 356.015625 224.472656 343.808594 223.671875 337.609375 225.171875 Z M 337.609375 225.171875 "/>
<path style=" stroke:none;fill-rule:nonzero;fill:rgb(0%,0%,0%);fill-opacity:1;" d="M 274.585938 239.976562 C 270.785156 240.976562 263.183594 244.378906 260.582031 246.378906 C 258.683594 247.777344 258.78125 247.980469 262.382812 252.378906 C 268.585938 259.984375 272.085938 261.582031 282.589844 261.582031 C 291.894531 261.582031 301.097656 259.183594 301.097656 256.78125 C 300.996094 254.179688 297.195312 247.378906 294.195312 244.378906 C 289.492188 239.675781 282.390625 238.078125 274.585938 239.976562 Z M 281.488281 242.675781 C 283.890625 243.578125 283.492188 247.777344 281.089844 248.578125 C 277.089844 249.878906 274.386719 245.179688 277.890625 243.179688 C 279.988281 241.878906 279.589844 241.976562 281.488281 242.675781 Z M 273.789062 247.078125 C 272.289062 251.082031 273.886719 255.183594 277.589844 257.082031 C 280.390625 258.484375 280.488281 258.582031 278.289062 258.882812 C 274.585938 259.484375 269.386719 257.183594 266.085938 253.480469 C 262.785156 249.679688 262.484375 248.78125 264.382812 247.378906 C 265.886719 246.078125 271.085938 244.277344 273.289062 244.179688 C 274.6875 244.078125 274.789062 244.476562 273.789062 247.078125 Z M 293.195312 247.777344 C 297.59375 252.582031 299.195312 255.78125 297.796875 256.882812 C 295.59375 258.683594 285.292969 260.285156 283.390625 259.183594 C 281.691406 258.28125 281.691406 258.183594 283.589844 257.480469 C 287.59375 256.082031 289.09375 253.882812 289.09375 249.378906 C 289.09375 247.078125 289.492188 245.078125 289.894531 245.078125 C 290.394531 245.078125 291.894531 246.277344 293.195312 247.777344 Z M 293.195312 247.777344 "/>
<path style=" stroke:none;fill-rule:nonzero;fill:rgb(0%,0%,0%);fill-opacity:1;" d="M 338.109375 248.878906 C 336.207031 249.878906 332.804688 252.882812 330.605469 255.480469 L 326.605469 260.183594 L 329.105469 262.183594 C 330.503906 263.183594 334.105469 265.285156 337.109375 266.785156 C 341.808594 269.085938 343.910156 269.585938 351.210938 269.585938 C 359.214844 269.585938 360.015625 269.386719 363.515625 266.585938 C 365.617188 264.882812 368.21875 263.085938 369.316406 262.484375 C 371.117188 261.382812 371.117188 261.285156 368.617188 258.28125 C 367.21875 256.582031 363.316406 253.480469 360.015625 251.480469 C 352.3125 246.878906 343.609375 245.777344 338.109375 248.878906 Z M 350.011719 251.980469 C 351.511719 254.679688 349.113281 257.582031 346.3125 256.683594 C 344.210938 255.980469 343.210938 252.28125 344.808594 250.78125 C 346.109375 249.480469 349.011719 250.078125 350.011719 251.980469 Z M 341.507812 252.78125 C 340.207031 255.683594 340.609375 261.683594 342.109375 263.285156 C 342.910156 264.085938 344.511719 265.085938 345.609375 265.585938 C 347.609375 266.386719 347.511719 266.484375 345.410156 266.785156 C 342.808594 267.285156 333.90625 263.585938 331.707031 261.183594 C 329.90625 259.28125 330.304688 258.582031 335.605469 254.28125 C 340.007812 250.679688 342.808594 249.980469 341.507812 252.78125 Z M 362.414062 256.582031 C 366.917969 259.683594 367.015625 261.082031 363.117188 264.484375 C 360.214844 266.886719 351.710938 269.085938 350.414062 267.6875 C 350.011719 267.285156 351.210938 265.785156 353.113281 264.183594 C 355.8125 261.984375 356.515625 260.683594 356.515625 257.78125 C 356.515625 253.382812 357.414062 253.28125 362.414062 256.582031 Z M 362.414062 256.582031 "/>
<path style=" stroke:none;fill-rule:nonzero;fill:rgb(0%,0%,0%);fill-opacity:1;" d="M 323.101562 254.980469 C 321.902344 257.28125 321.804688 280.289062 323.003906 278.089844 C 323.804688 276.589844 325.304688 253.082031 324.605469 253.082031 C 324.304688 253.082031 323.703125 253.980469 323.101562 254.980469 Z M 323.101562 254.980469 "/>
<path style=" stroke:none;fill-rule:nonzero;fill:rgb(0%,0%,0%);fill-opacity:1;" d="M 272.585938 306.796875 C 270.988281 308.296875 270.988281 308.5 272.886719 310 C 273.988281 310.898438 276.089844 314.699219 277.589844 318.601562 C 285.292969 338.207031 288.890625 342.609375 298.996094 345.511719 C 308.796875 348.210938 316.703125 347.3125 322.902344 342.710938 C 326.304688 340.207031 335.707031 328.304688 339.308594 321.902344 C 340.410156 319.902344 342.210938 318 343.210938 317.800781 C 344.410156 317.5 344.910156 316.703125 344.511719 315.800781 C 343.710938 313.601562 341.308594 312.898438 338.808594 314.300781 C 335.808594 315.902344 310.5 315.902344 302.195312 314.199219 C 292.394531 312.300781 278.789062 308.097656 276.988281 306.5 C 274.988281 304.699219 274.585938 304.699219 272.585938 306.796875 Z M 293.09375 314.699219 C 302.597656 317.203125 305.296875 317.5 320.800781 317.5 C 332.507812 317.601562 338.109375 318 338.109375 318.703125 C 338.109375 319.300781 336.90625 320.800781 335.507812 322.203125 C 333.007812 324.503906 332.507812 324.605469 317.300781 324.605469 C 301.394531 324.605469 290.792969 323.003906 283.890625 319.503906 C 280.988281 318 278.089844 314.402344 278.089844 312.300781 C 278.089844 310.699219 277.988281 310.699219 293.09375 314.699219 Z M 293.292969 335.207031 C 294.59375 335.707031 301.898438 336.707031 309.597656 337.40625 L 323.503906 338.609375 L 321.203125 340.808594 C 318.402344 343.410156 312.101562 344.609375 304.199219 343.808594 C 298.09375 343.308594 293.992188 341.609375 290.394531 338.109375 C 286.492188 334.507812 288.191406 332.804688 293.292969 335.207031 Z M 293.292969 335.207031 "/>
</g>
</svg>
